HIERARCHY
ROOT Hips
{
  OFFSET 0 0 0
  CHANNELS 6 Xposition Yposition Zposition Zrotation Xrotation Yrotation
  JOINT Spine
  {
    OFFSET 0 10 0
    CHANNELS 3 Zrotation Xrotation Yrotation
    JOINT Neck
    {
      OFFSET 0 30 0
      CHANNELS 3 Zrotation Xrotation Yrotation
      JOINT Head
      {
        OFFSET 0 8 0
        CHANNELS 3 Zrotation Xrotation Yrotation
        End Site
        {
          OFFSET 0 10 0
        }
      }
    }
    JOINT LeftArm
    {
      OFFSET 15 30 0
      CHANNELS 3 Zrotation Xrotation Yrotation
      JOINT LeftForeArm
      {
        OFFSET 25 0 0
        CHANNELS 3 Zrotation Xrotation Yrotation
        JOINT LeftHand
        {
          OFFSET 25 0 0
          CHANNELS 3 Zrotation Xrotation Yrotation
          End Site
          {
            OFFSET 10 0 0
          }
        }
      }
    }
    JOINT RightArm
    {
      OFFSET -15 30 0
      CHANNELS 3 Zrotation Xrotation Yrotation
      JOINT RightForeArm
      {
        OFFSET -25 0 0
        CHANNELS 3 Zrotation Xrotation Yrotation
        JOINT RightHand
        {
          OFFSET -25 0 0
          CHANNELS 3 Zrotation Xrotation Yrotation
          End Site
          {
            OFFSET -10 0 0
          }
        }
      }
    }
  }
  JOINT LeftUpLeg
  {
    OFFSET 10 -10 0
    CHANNELS 3 Zrotation Xrotation Yrotation
    JOINT LeftLeg
    {
      OFFSET 0 -35 0
      CHANNELS 3 Zrotation Xrotation Yrotation
      JOINT LeftFoot
      {
        OFFSET 0 -40 0
        CHANNELS 3 Zrotation Xrotation Yrotation
        End Site
        {
          OFFSET 0 0 15
        }
      }
    }
  }
  JOINT RightUpLeg
  {
    OFFSET -10 -10 0
    CHANNELS 3 Zrotation Xrotation Yrotation
    JOINT RightLeg
    {
      OFFSET 0 -35 0
      CHANNELS 3 Zrotation Xrotation Yrotation
      JOINT RightFoot
      {
        OFFSET 0 -40 0
        CHANNELS 3 Zrotation Xrotation Yrotation
        End Site
        {
          OFFSET 0 0 15
        }
      }
    }
  }
}
MOTION
Frames:	21
Frame Time:	0.0416667
-43.6176 84.4947 -83.3889 -2.3781 -1.28415 93.6095 2.31223 3.05856 -1.50275 -6.11849 -14.611 -6.25178 8.29555 16.9176 -6.78576 -87.2611 69.4149 13.2014 34.1096 -27.0686 -76.2391 8.74452e-06 -31.1122 1.69233e-05 93.6848 55.0836 -16.3326 -33.8743 -26.2516 74.8833 2.17046e-06 -1.82454 -1.20803e-05 7.42795 -5.27926 -10.5958 0.0696549 22.2673 -0.395708 2.96554 -21.7496 8.11258 -5.03008 2.09161 -4.86872 0.00313906 9.72242 -0.0470707 -2.47676 -12.1478 -16.0678 
-43.9535 84.5387 -83.3942 -3.03155 -1.25968 93.679 2.32597 3.12579 -1.47651 -6.33882 -15.0226 -6.5595 9.20955 17.2398 -7.29256 -83.7171 68.9442 9.5069 34.2552 -27.6151 -77.1447 8.42393e-06 -30.1738 1.67599e-05 92.8979 54.1619 -14.8064 -33.9604 -26.5422 75.3656 2.37259e-06 -0.86589 -1.20756e-05 7.3301 -6.27544 -10.6828 0.0691426 22.2055 -0.394972 3.01693 -21.4415 8.36015 -5.13639 1.10478 -5.01637 0.00321089 9.70448 -0.0475831 -2.43245 -12.0317 -15.9581 
-44.2655 84.5787 -83.3654 -3.51789 -1.17317 93.4212 2.44145 3.33313 -1.09817 -6.88965 -14.943 -6.7055 9.87375 16.5081 -7.48736 -80.0763 68.4368 5.01873 34.3679 -28.0657 -77.8913 7.98792e-06 -28.8684 1.6545e-05 91.1729 53.7575 -12.667 -34.1159 -27.0912 76.2762 2.35991e-06 -0.926054 -1.20758e-05 7.23392 -6.84254 -10.3883 0.0669167 21.9144 -0.393636 3.06481 -21.1018 8.61703 -5.27776 0.267671 -4.81986 0.00333 9.74567 -0.0480876 -2.37572 -11.8756 -15.8951 
-44.4576 84.6047 -83.3994 -4.10298 -1.24465 93.5906 2.70059 2.91296 -1.77811 -6.05705 -15.1837 -6.33517 8.25838 17.3353 -6.54634 -75.7046 67.0387 -0.74039 34.4161 -28.2664 -78.2241 8.05702e-06 -29.0775 1.65785e-05 87.1254 53.3341 -7.07352 -34.1458 -27.2012 76.4587 2.48448e-06 -0.335007 -1.20744e-05 7.19283 -7.72917 -10.5833 0.0678653 21.9786 -0.394789 3.0858 -20.9582 8.73006 -5.33515 -0.534716 -5.05907 0.00334895 9.76792 -0.0480908 -2.36716 -11.9198 -15.8008 
-44.5694 84.613 -83.4436 -4.15082 -1.18464 93.5284 2.94167 2.69657 -1.55184 -5.65113 -15.0942 -5.97007 6.92947 18.1269 -6.00186 -68.5011 66.1564 -9.5798 34.4116 -28.2471 -78.1921 8.54945e-06 -30.5434 1.68233e-05 82.4488 51.5074 -1.10412 -34.3203 -27.8724 77.5711 2.60598e-06 0.241528 -1.20743e-05 7.07316 -7.82394 -10.6903 0.0692151 21.945 -0.398742 3.15561 -20.9201 8.93657 -5.48069 -0.715932 -5.00364 0.00339216 9.81864 -0.0480981 -2.41401 -12.2179 -15.6391 
-44.6749 84.6282 -83.4808 -4.03451 -1.00618 93.4698 3.02443 2.61559 -1.36011 -5.65185 -15.2524 -5.85736 6.96469 18.9096 -5.95856 -60.3909 65.1818 -18.9144 34.4506 -28.4135 -78.4678 9.20469e-06 -32.4273 1.71656e-05 77.4147 49.7303 5.0108 -34.5373 -28.7979 79.105 2.63236e-06 0.366701 -1.20744e-05 6.87663 -7.77098 -10.4829 0.0706739 21.9151 -0.402979 3.08442 -20.5798 8.87741 -5.72251 -0.677949 -4.93186 0.00342734 9.85993 -0.0481041 -2.44612 -12.2977 -15.6511 
-44.7801 84.631 -83.4683 -4.03553 -1.31364 93.0996 3.42191 2.46452 -1.14613 -4.84461 -15.6325 -5.45943 6.12763 19.4758 -5.74577 -54.8935 61.9525 -26.3308 34.4834 -28.5564 -78.7049 9.79167e-06 -34.0508 1.74874e-05 70.6409 48.4525 13.0533 -34.6678 -29.4204 80.1378 2.54443e-06 -0.0505142 -1.20742e-05 7.25464 -8.07688 -10.0591 0.0778624 22.4338 -0.412813 3.05269 -20.6245 8.77083 -5.29871 -0.821478 -4.57012 0.00331914 9.73291 -0.0480857 -2.28274 -11.5771 -15.7905 
-44.9052 84.6307 -83.5075 -4.03148 -1.19583 93.4032 3.47734 2.3752 -0.938392 -5.11095 -15.7225 -5.48654 6.41652 19.4458 -6.02855 -49.6455 58.0285 -34.3787 34.3859 -28.1395 -78.0139 1.00445e-05 -34.7316 1.76302e-05 64.6775 45.5835 20.9287 -34.6031 -29.1045 79.6134 2.58626e-06 0.147976 -1.20742e-05 7.15765 -8.47418 -9.72626 0.0826633 22.7521 -0.419628 2.72703 -20.5381 7.89035 -5.53353 -0.919252 -4.87285 0.00337414 9.79749 -0.048095 -2.35458 -11.9825 -15.6074 
-45.0784 84.6498 -83.4613 -3.88275 -0.906113 92.83 3.08079 2.50073 -0.514383 -4.82296 -15.8055 -5.37653 6.45964 19.8165 -6.26814 -44.1874 53.4377 -42.1368 33.7857 -25.9621 -74.3977 9.22787e-06 -32.4926 1.7178e-05 59.3391 42.3331 28.6477 -34.1812 -27.3328 76.6777 1.83743e-06 -3.40146 -1.20955e-05 6.98341 -8.33472 -8.85837 0.0835602 22.8039 -0.420931 2.59755 -20.3088 7.60347 -5.84794 -1.01695 -4.28841 0.00340602 9.83491 -0.0481005 -2.29353 -11.7915 -15.5729 
-45.3329 84.6756 -83.6866 -3.65339 -0.630238 93.2017 3.31436 2.85081 -0.115496 -5.96356 -15.8845 -5.79386 7.10481 19.9259 -6.87135 -38.5579 49.4468 -51.1271 32.5581 -22.6029 -68.7698 9.3353e-06 -32.7938 1.7236e-05 53.821 38.0512 35.896 -33.2238 -24.2959 71.6227 1.10251e-06 -6.85991 -1.21613e-05 6.55255 -8.45255 -8.52657 0.0849739 22.9334 -0.422205 2.44153 -19.974 7.27016 -6.28618 -0.821676 -4.63304 0.00341767 9.84858 -0.0481025 -2.19826 -11.4059 -15.7026 
-45.5702 84.6566 -83.9183 -3.87003 -0.397461 93.5044 3.1483 3.02602 -0.428983 -5.95399 -16.1048 -5.80021 7.18556 19.2858 -6.67157 -35.1318 45.148 -57.489 30.9741 -19.2702 -63.014 9.90754e-06 -34.3642 1.75525e-05 50.4828 34.569 42.2627 -31.7045 -20.7113 65.5243 9.30776e-07 -7.66182 -1.2183e-05 6.20214 -8.90626 -7.91268 0.0841267 22.7903 -0.422417 2.1298 -19.3587 6.55737 -6.7051 -1.04696 -4.96241 0.00338498 9.81021 -0.0480969 -2.09546 -11.0181 -15.7171 
-45.8011 84.6825 -84.1713 -4.40059 -0.359182 93.9561 3.29081 3.18538 -0.968665 -5.63474 -16.3075 -5.72214 5.8689 18.2988 -6.18097 -32.3499 41.2505 -62.9737 28.9715 -15.9801 -57.0307 1.07886e-05 -36.6716 1.80645e-05 48.0745 31.4675 47.7555 -29.7705 -17.2143 59.3185 6.22878e-07 -9.0918 -1.22278e-05 5.88964 -9.93463 -7.8886 0.0861509 23.0125 -0.423609 2.05919 -19.0415 6.44325 -6.99363 -1.67555 -5.48423 0.00341783 9.84877 -0.0481025 -2.01788 -10.7654 -15.6703 
-46.0402 84.7006 -84.3589 -5.05483 -0.498677 93.899 3.62263 3.78066 -1.28896 -5.11718 -16.885 -5.36119 4.63626 17.4459 -5.37695 -32.1994 37.1599 -66.4281 27.291 -13.6747 -52.5793 1.11604e-05 -37.6058 1.82889e-05 47.5092 28.9128 51.4596 -28.3884 -15.1398 55.4369 5.01356e-07 -9.65316 -1.22476e-05 5.98174 -11.1385 -7.01806 0.0899374 23.4554 -0.425417 1.82495 -18.7153 5.82366 -7.06579 -2.63919 -5.52547 0.0034477 9.88382 -0.0481076 -1.95902 -10.5949 -15.6011 
-46.1659 84.7255 -84.4632 -5.86754 -0.314066 93.4505 3.60107 4.27746 -1.2396 -5.08064 -16.8689 -5.17689 4.45633 16.0909 -5.21087 -33.8998 33.1316 -68.7927 25.4132 -11.4689 -48.013 1.04065e-05 -35.6872 1.78389e-05 47.3362 26.325 55.1917 -26.9234 -13.2172 51.6537 5.85539e-07 -9.26448 -1.22338e-05 5.72996 -11.9664 -6.62044 0.0889653 23.3089 -0.425301 1.8384 -18.5179 5.91362 -7.40291 -3.73881 -5.19833 0.00343399 9.86774 -0.0481053 -1.90788 -10.4401 -15.5477 
-46.252 84.7684 -84.5068 -6.61831 -0.289558 92.9408 3.68782 4.93849 -1.20914 -4.87283 -17.2458 -4.991 4.34455 15.6303 -4.87463 -34.2851 29.0665 -71.7181 23.0482 -9.11142 -42.6976 1.01551e-05 -35.0259 1.76934e-05 46.0779 23.7033 59.7554 -25.4155 -11.4708 48.0194 7.65349e-07 -8.43143 -1.22061e-05 5.64844 -12.6991 -6.51695 0.0880211 23.1631 -0.425203 1.96337 -18.3659 6.32947 -7.43997 -4.79574 -4.80144 0.00342889 9.86175 -0.0481044 -1.80408 -9.99038 -15.6779 
-46.3092 84.8175 -84.5047 -7.26156 -0.382664 92.8251 3.80129 5.63901 -1.13468 -4.82686 -17.1862 -4.93552 4.56002 14.7549 -4.90433 -33.081 25.3786 -75.7144 20.2676 -6.81902 -36.8693 9.48007e-06 -33.1965 1.73148e-05 47.0909 19.4971 64.0449 -22.7109 -8.80903 41.9677 1.66461e-06 -4.2179 -1.2107e-05 5.64874 -13.3174 -6.81978 0.086133 22.9694 -0.423471 2.12647 -18.3792 6.82314 -7.42319 -5.54549 -4.77944 0.00339372 9.82047 -0.0480984 -1.86377 -10.2292 -15.5759 
-46.3292 84.8831 -84.4671 -8.00013 -0.548273 92.8972 3.87062 6.1327 -1.462 -4.29216 -17.1523 -4.70942 3.91119 14.0143 -4.43415 -33.8985 21.9462 -79.0424 17.0219 -4.66672 -30.4671 9.04748e-06 -31.9822 1.70818e-05 47.8597 15.8554 68.9091 -18.8381 -5.8068 34.0063 1.94947e-06 -2.87141 -1.20894e-05 5.75704 -14.0839 -7.29116 0.0837358 22.7736 -0.420374 2.25435 -18.2331 7.30103 -7.31079 -6.40685 -4.95537 0.00344374 9.87918 -0.0481069 -1.92241 -10.5399 -15.4346 
-46.3378 84.931 -84.3869 -8.51712 -0.61772 92.9462 4.00827 6.72797 -2.07127 -3.3085 -17.3982 -4.21643 2.00961 13.5271 -3.5924 -37.1633 18.1483 -82.1803 13.4401 -2.83732 -23.7395 8.50581e-06 -30.4152 1.68012e-05 52.5282 12.0596 74.8163 -13.986 -3.08277 24.7468 3.22622e-06 3.18151 -1.20928e-05 5.80157 -14.6781 -7.71013 0.0827884 22.6981 -0.41772 2.34149 -18.262 7.61973 -7.02871 -6.9751 -5.06005 0.00334607 9.76453 -0.0480903 -1.615 -9.22461 -15.7709 
-46.2818 84.9743 -84.1734 -8.97744 -0.62042 92.804 3.85362 7.04138 -2.21745 -2.91839 -17.7634 -3.9033 1.41751 13.2892 -3.04505 -38.3901 15.6478 -84.7073 10.9219 -1.84795 -19.1585 7.87167e-06 -28.5146 1.64892e-05 59.8468 9.20022 78.8687 -10.0274 -1.54946 17.5547 5.07606e-06 11.7934 -1.23346e-05 5.94859 -15.0037 -7.83569 0.0807872 22.4692 -0.414632 2.41391 -18.1903 7.8744 -6.77549 -7.48124 -4.9555 0.00330261 9.7135 -0.0480829 -1.47269 -8.63196 -15.931 
-46.0123 84.989 -84.0057 -9.2953 -0.875355 93.2312 4.04918 6.70836 -2.40056 -3.03245 -17.6079 -4.0089 0.971923 13.1248 -3.09464 -38.697 15.6723 -84.8244 10.6614 -1.75934 -18.6893 7.47494e-06 -27.2894 1.63036e-05 58.8827 9.82037 77.8252 -10.7331 -1.78374 18.8185 4.90624e-06 11.0191 -1.2301e-05 6.21075 -15.1821 -8.34591 0.0795542 22.3341 -0.411882 2.56094 -18.2696 8.29702 -6.42303 -7.55594 -5.40059 0.00334687 9.76547 -0.0480904 -1.57062 -8.99424 -15.9754 
-45.8675 84.9653 -83.8438 -9.18317 -0.872019 93.4249 3.7648 6.7034 -2.91831 -2.21533 -17.3819 -3.79176 0.125003 13.3129 -2.57571 -37.8199 15.5982 -83.9091 11.1404 -1.92536 -19.5518 7.65357e-06 -27.8445 1.63862e-05 57.0817 10.9472 77.1298 -11.7511 -2.1487 20.6557 4.34849e-06 8.4485 -1.22067e-05 6.25106 -14.9717 -8.7562 0.0788823 22.2969 -0.408884 2.67428 -18.3778 8.58355 -6.25973 -7.32433 -5.56 0.00331524 9.72833 -0.0480851 -1.51606 -8.73678 -16.1123 
